<svg width="114" height="108" viewBox="0 0 114 108" fill="none" xmlns="http://www.w3.org/2000/svg">
<path fill-rule="evenodd" clip-rule="evenodd" d="M62.6856 22.7368C58.9429 22.7368 55.2369 23.472 51.7791 24.9003C48.3214 26.3286 45.1795 28.422 42.5331 31.0612C39.8866 33.7003 37.7873 36.8334 36.355 40.2816C35.0812 43.3483 34.3572 46.6108 34.2126 49.9207C34.1795 50.6783 33.7567 51.3718 33.078 51.7101L23.8932 56.2899C23.2145 56.6283 22.7795 57.3217 22.8126 58.0793C22.9572 61.3892 23.6812 64.6517 24.955 67.7184C26.3873 71.1666 28.4866 74.2997 31.1331 76.9388C33.7795 79.578 36.9214 81.6714 40.3791 83.0997C43.8369 84.528 47.5429 85.2632 51.2856 85.2632C55.0283 85.2632 58.7343 84.528 62.1921 83.0997C65.6499 81.6714 68.7917 79.578 71.4381 76.9388C74.0846 74.2997 76.1839 71.1666 77.6162 67.7184C78.89 64.6517 79.614 61.3892 79.7586 58.0793C79.7917 57.3217 80.2145 56.6283 80.8932 56.2899L90.078 51.7101C90.7567 51.3718 91.1917 50.6783 91.1586 49.9207C91.014 46.6108 90.29 43.3483 89.0162 40.2816C87.5839 36.8334 85.4846 33.7003 82.8381 31.0612C80.1917 28.422 77.0499 26.3286 73.5921 24.9003C70.1343 23.472 66.4283 22.7368 62.6856 22.7368ZM75.8509 45.7198C76.4084 47.062 76.7553 48.4793 76.8816 49.9219C76.9477 50.6773 76.5067 51.3718 75.828 51.7101L66.6432 56.2899C65.9645 56.6283 65.5477 57.3227 65.4816 58.0781C65.3553 59.5207 65.0084 60.938 64.4509 62.2802C63.7348 64.0043 62.6851 65.5709 61.3619 66.8905C60.0386 68.21 58.4677 69.2568 56.7388 69.9709C55.01 70.6851 53.1569 71.0526 51.2856 71.0526C49.4143 71.0526 47.5613 70.6851 45.8324 69.9709C44.1035 69.2568 42.5326 68.21 41.2093 66.8905C39.8861 65.5709 38.8365 64.0043 38.1203 62.2802C37.5628 60.938 37.2159 59.5207 37.0896 58.0781C37.0235 57.3227 37.4645 56.6283 38.1432 56.2899L47.328 51.7101C48.0067 51.3718 48.4235 50.6773 48.4896 49.9219C48.6159 48.4793 48.9628 47.062 49.5203 45.7198C50.2364 43.9957 51.2861 42.4291 52.6093 41.1095C53.9326 39.79 55.5035 38.7432 57.2324 38.0291C58.9613 37.3149 60.8143 36.9474 62.6856 36.9474C64.5569 36.9474 66.41 37.3149 68.1388 38.0291C69.8677 38.7432 71.4386 39.79 72.7619 41.1095C74.0851 42.4291 75.1348 43.9957 75.8509 45.7198Z" fill="#FF6900"/>
<path fill-rule="evenodd" clip-rule="evenodd" d="M62.6855 0C55.9487 0 49.2778 1.32323 43.0538 3.89416C36.8298 6.46508 31.1746 10.2334 26.4109 14.9838C21.6473 19.7343 17.8686 25.3739 15.2905 31.5806C12.8708 37.406 11.5533 43.624 11.4005 49.9204C11.3821 50.6785 10.9566 51.3718 10.2779 51.7101L1.09311 56.2899C0.414449 56.6283 -0.0178292 57.3215 0.000564806 58.0796C0.153339 64.376 1.47087 70.594 3.89054 76.4194C6.4686 82.6262 10.2473 88.2658 15.0109 93.0162C19.7746 97.7666 25.4298 101.535 31.6539 104.105C37.8779 106.676 44.5487 108 51.2855 108C58.0223 108 64.6933 106.676 70.9173 104.105C77.1413 101.535 82.7965 97.7666 87.5602 93.0162C92.3238 88.2658 96.1025 82.6262 98.6805 76.4194C101.101 70.594 102.418 64.376 102.571 58.0796C102.589 57.3215 103.015 56.6283 103.693 56.2899L112.878 51.7101C113.557 51.3718 113.989 50.6785 113.971 49.9204C113.818 43.624 112.501 37.406 110.081 31.5806C107.503 25.3739 103.724 19.7343 98.9602 14.9838C94.1965 10.2334 88.5413 6.46509 82.3173 3.89416C76.0933 1.32324 69.4223 0 62.6855 0ZM88.3148 58.0795C88.3403 57.3216 88.7645 56.6283 89.4432 56.2899L98.628 51.7101C99.3067 51.3718 99.7407 50.6784 99.7147 49.9205C99.5657 45.4906 98.6188 41.12 96.9153 37.0188C95.0534 32.5361 92.3242 28.463 88.8839 25.0322C85.4435 21.6013 81.3591 18.8798 76.864 17.023C72.3689 15.1662 67.551 14.2105 62.6855 14.2105C57.82 14.2105 53.0022 15.1662 48.5071 17.023C44.012 18.8798 39.9276 21.6013 36.4872 25.0322C33.0468 28.463 30.3177 32.5361 28.4558 37.0188C26.7523 41.12 25.8051 45.4906 25.6563 49.9205C25.6308 50.6784 25.2067 51.3718 24.528 51.7101L15.3431 56.2899C14.6644 56.6283 14.2308 57.3216 14.2563 58.0795C14.4051 62.5094 15.3523 66.88 17.0558 70.9813C18.9177 75.4639 21.6468 79.537 25.0872 82.9678C28.5276 86.3987 32.612 89.1202 37.1071 90.977C41.6022 92.8338 46.42 93.7895 51.2855 93.7895C56.151 93.7895 60.9689 92.8338 65.464 90.977C69.9591 89.1202 74.0434 86.3987 77.4838 82.9678C80.9242 79.537 83.6534 75.4639 85.5154 70.9813C87.2189 66.88 88.166 62.5094 88.3148 58.0795Z" fill="#FF6900"/>
<path d="M113.971 50H99.7157C99.7097 50.7266 99.2827 51.3836 98.6282 51.7102L89.4433 56.2899C88.7885 56.6164 88.3705 57.2734 88.3191 58H102.574C102.62 57.2733 103.039 56.6164 103.694 56.2899L112.879 51.7102C113.533 51.3837 113.959 50.7268 113.971 50Z" fill="#FFB86A"/>
<path d="M0.000488281 58H14.2556C14.2618 57.2734 14.6885 56.6164 15.3433 56.2899L24.5282 51.7102C25.1831 51.3836 25.601 50.7266 25.6524 50H11.3973C11.3522 50.7268 10.933 51.3837 10.2782 51.7102L1.09331 56.2899C0.438479 56.6164 0.0130323 57.2733 0.000488281 58Z" fill="#FFB86A"/>
<path d="M34.2078 50C34.1497 50.7264 33.733 51.3836 33.0781 51.7102L23.8932 56.2899C23.2383 56.6164 22.8103 57.2736 22.8109 58H37.0846C37.0543 57.2751 37.488 56.6166 38.1432 56.2899L47.3281 51.7102C47.9833 51.3835 48.3944 50.7249 48.4816 50H34.2078Z" fill="#FFB86A"/>
<path d="M76.8868 50C76.9171 50.7249 76.4834 51.3835 75.8282 51.7102L66.6433 56.2899C65.9881 56.6166 65.577 57.2751 65.4899 58H79.7637C79.8218 57.2736 80.2384 56.6164 80.8933 56.2899L90.0782 51.7102C90.7331 51.3836 91.1611 50.7264 91.1605 50H76.8868Z" fill="#FFB86A"/>
</svg>
