<svg width="440" height="129" viewBox="0 0 440 129" fill="none" xmlns="http://www.w3.org/2000/svg">
<path fill-rule="evenodd" clip-rule="evenodd" d="M63.5789 31.7368C59.8362 31.7368 56.1302 32.472 52.6724 33.9003C49.2147 35.3286 46.0728 37.422 43.4264 40.0612C40.7799 42.7003 38.6806 45.8334 37.2483 49.2816C35.9745 52.3483 35.2505 55.6108 35.1059 58.9207C35.0728 59.6783 34.65 60.3718 33.9713 60.7101L24.7865 65.2899C24.1078 65.6283 23.6728 66.3217 23.7059 67.0793C23.8505 70.3892 24.5745 73.6517 25.8483 76.7184C27.2806 80.1666 29.3799 83.2997 32.0264 85.9388C34.6728 88.578 37.8147 90.6714 41.2724 92.0997C44.7302 93.528 48.4362 94.2632 52.1789 94.2632C55.9216 94.2632 59.6276 93.528 63.0854 92.0997C66.5432 90.6714 69.685 88.578 72.3314 85.9388C74.9779 83.2997 77.0772 80.1666 78.5095 76.7184C79.7833 73.6517 80.5073 70.3892 80.6519 67.0793C80.685 66.3217 81.1078 65.6283 81.7865 65.2899L90.9713 60.7101C91.65 60.3718 92.085 59.6783 92.0519 58.9207C91.9073 55.6108 91.1833 52.3483 89.9095 49.2816C88.4772 45.8334 86.3779 42.7003 83.7314 40.0612C81.085 37.422 77.9432 35.3286 74.4854 33.9003C71.0276 32.472 67.3216 31.7368 63.5789 31.7368ZM76.7442 54.7198C77.3017 56.062 77.6486 57.4793 77.7749 58.9219C77.841 59.6773 77.4 60.3718 76.7213 60.7101L67.5365 65.2899C66.8578 65.6283 66.441 66.3227 66.3749 67.0781C66.2486 68.5207 65.9017 69.938 65.3442 71.2802C64.6281 73.0043 63.5784 74.5709 62.2552 75.8905C60.9319 77.21 59.361 78.2568 57.6321 78.9709C55.9033 79.6851 54.0502 80.0526 52.1789 80.0526C50.3076 80.0526 48.4546 79.6851 46.7257 78.9709C44.9968 78.2568 43.4259 77.21 42.1026 75.8905C40.7794 74.5709 39.7298 73.0043 39.0136 71.2802C38.4561 69.938 38.1092 68.5207 37.9829 67.0781C37.9168 66.3227 38.3578 65.6283 39.0365 65.2899L48.2213 60.7101C48.9 60.3718 49.3168 59.6773 49.3829 58.9219C49.5092 57.4793 49.8561 56.062 50.4136 54.7198C51.1297 52.9957 52.1794 51.4291 53.5026 50.1095C54.8259 48.79 56.3968 47.7432 58.1257 47.0291C59.8546 46.3149 61.7076 45.9474 63.5789 45.9474C65.4502 45.9474 67.3033 46.3149 69.0321 47.0291C70.761 47.7432 72.3319 48.79 73.6552 50.1095C74.9784 51.4291 76.0281 52.9957 76.7442 54.7198Z" fill="#FF6900"/>
<path fill-rule="evenodd" clip-rule="evenodd" d="M63.5789 9C56.8421 9 50.1712 10.3232 43.9472 12.8942C37.7232 15.4651 32.068 19.2334 27.3043 23.9838C22.5407 28.7343 18.762 34.3739 16.1839 40.5806C13.7642 46.406 12.4467 52.624 12.2939 58.9204C12.2755 59.6785 11.85 60.3718 11.1713 60.7101L1.98646 65.2899C1.3078 65.6283 0.875522 66.3215 0.893916 67.0796C1.04669 73.376 2.36422 79.594 4.78389 85.4194C7.36195 91.6262 11.1407 97.2658 15.9043 102.016C20.668 106.767 26.3232 110.535 32.5473 113.105C38.7713 115.676 45.4421 117 52.1789 117C58.9157 117 65.5866 115.676 71.8106 113.105C78.0346 110.535 83.6898 106.767 88.4535 102.016C93.2171 97.2658 96.9959 91.6262 99.5739 85.4194C101.994 79.594 103.311 73.376 103.464 67.0796C103.482 66.3215 103.908 65.6283 104.586 65.2899L113.771 60.7101C114.45 60.3718 114.882 59.6785 114.864 58.9204C114.711 52.624 113.394 46.406 110.974 40.5806C108.396 34.3739 104.617 28.7343 99.8535 23.9838C95.0898 19.2334 89.4346 15.4651 83.2106 12.8942C76.9866 10.3232 70.3157 9 63.5789 9ZM89.2081 67.0795C89.2336 66.3216 89.6578 65.6283 90.3365 65.2899L99.5213 60.7101C100.2 60.3718 100.634 59.6784 100.608 58.9205C100.459 54.4906 99.5121 50.12 97.8086 46.0188C95.9467 41.5361 93.2176 37.463 89.7772 34.0322C86.3368 30.6013 82.2524 27.8798 77.7573 26.023C73.2622 24.1662 68.4444 23.2105 63.5789 23.2105C58.7134 23.2105 53.8956 24.1662 49.4005 26.023C44.9054 27.8798 40.821 30.6013 37.3806 34.0322C33.9402 37.463 31.2111 41.5361 29.3492 46.0188C27.6457 50.12 26.6985 54.4906 26.5497 58.9205C26.5242 59.6784 26.1 60.3718 25.4213 60.7101L16.2365 65.2899C15.5578 65.6283 15.1242 66.3216 15.1497 67.0795C15.2985 71.5094 16.2457 75.88 17.9492 79.9813C19.8111 84.4639 22.5402 88.537 25.9806 91.9678C29.421 95.3987 33.5054 98.1202 38.0005 99.977C42.4956 101.834 47.3134 102.789 52.1789 102.789C57.0444 102.789 61.8622 101.834 66.3573 99.977C70.8524 98.1202 74.9368 95.3987 78.3772 91.9678C81.8176 88.537 84.5467 84.4639 86.4087 79.9813C88.1122 75.88 89.0593 71.5094 89.2081 67.0795Z" fill="#FF6900"/>
<path d="M114.864 59H100.609C100.603 59.7266 100.176 60.3836 99.5215 60.7102L90.3366 65.2899C89.6818 65.6164 89.2638 66.2734 89.2124 67H103.467C103.513 66.2733 103.932 65.6164 104.587 65.2899L113.772 60.7102C114.426 60.3837 114.852 59.7268 114.864 59Z" fill="#FFB86A"/>
<path d="M0.893799 67H15.1489C15.1551 66.2734 15.5818 65.6164 16.2366 65.2899L25.4215 60.7102C26.0764 60.3836 26.4943 59.7266 26.5457 59H12.2906C12.2455 59.7268 11.8263 60.3837 11.1715 60.7102L1.98662 65.2899C1.33179 65.6164 0.906343 66.2733 0.893799 67Z" fill="#FFB86A"/>
<path d="M35.1012 59C35.0431 59.7264 34.6264 60.3836 33.9715 60.7102L24.7866 65.2899C24.1317 65.6164 23.7037 66.2736 23.7043 67H37.978C37.9477 66.2751 38.3814 65.6166 39.0366 65.2899L48.2215 60.7102C48.8767 60.3835 49.2878 59.7249 49.375 59H35.1012Z" fill="#FFB86A"/>
<path d="M77.7801 59C77.8104 59.7249 77.3767 60.3835 76.7215 60.7102L67.5366 65.2899C66.8814 65.6166 66.4703 66.2751 66.3832 67H80.657C80.7151 66.2736 81.1317 65.6164 81.7866 65.2899L90.9715 60.7102C91.6264 60.3836 92.0544 59.7264 92.0538 59H77.7801Z" fill="#FFB86A"/>
<path d="M162.54 60L149.94 18.6H159.24L172.5 60H162.54ZM132 60L145.26 18.6H154.02L141.78 60H132ZM141.18 50.52V42.3H163.26V50.52H141.18ZM186.662 60.84C183.622 60.84 180.942 60.14 178.622 58.74C176.302 57.34 174.482 55.38 173.162 52.86C171.842 50.34 171.182 47.42 171.182 44.1C171.182 40.74 171.842 37.82 173.162 35.34C174.482 32.82 176.302 30.86 178.622 29.46C180.942 28.06 183.622 27.36 186.662 27.36C190.462 27.36 193.642 28.38 196.202 30.42C198.802 32.42 200.482 35.18 201.242 38.7L192.362 40.68C192.122 38.92 191.502 37.6 190.502 36.72C189.542 35.8 188.262 35.34 186.662 35.34C184.782 35.34 183.262 36.08 182.102 37.56C180.942 39.04 180.362 41.22 180.362 44.1C180.362 46.98 180.942 49.16 182.102 50.64C183.262 52.12 184.782 52.86 186.662 52.86C188.262 52.86 189.582 52.42 190.622 51.54C191.662 50.66 192.322 49.34 192.602 47.58L201.422 49.44C200.662 52.96 198.962 55.74 196.322 57.78C193.682 59.82 190.462 60.84 186.662 60.84ZM240.702 60V41.64C240.702 39.52 240.242 37.94 239.322 36.9C238.442 35.82 237.302 35.28 235.902 35.28C234.502 35.28 233.342 35.82 232.422 36.9C231.542 37.94 231.102 39.52 231.102 41.64H228.522C228.522 38.6 228.962 36.02 229.842 33.9C230.762 31.78 232.042 30.16 233.682 29.04C235.322 27.92 237.262 27.36 239.502 27.36C242.462 27.36 244.882 28.46 246.762 30.66C248.682 32.86 249.642 35.92 249.642 39.84V60H240.702ZM203.622 60V28.2H212.562V60H203.622ZM222.162 60V41.64C222.162 39.52 221.722 37.94 220.842 36.9C219.962 35.82 218.802 35.28 217.362 35.28C215.962 35.28 214.802 35.82 213.882 36.9C213.002 37.94 212.562 39.52 212.562 41.64H211.002C211.002 38.6 211.402 36.02 212.202 33.9C213.042 31.78 214.222 30.16 215.742 29.04C217.302 27.92 219.122 27.36 221.202 27.36C224.122 27.36 226.502 28.46 228.342 30.66C230.182 32.86 231.102 35.92 231.102 39.84V60H222.162ZM267.285 60.84C264.325 60.84 261.685 60.14 259.365 58.74C257.085 57.34 255.305 55.38 254.025 52.86C252.745 50.34 252.105 47.42 252.105 44.1C252.105 40.74 252.745 37.8 254.025 35.28C255.345 32.76 257.165 30.82 259.485 29.46C261.805 28.06 264.445 27.36 267.405 27.36C270.405 27.36 273.045 28.06 275.325 29.46C277.645 30.82 279.445 32.76 280.725 35.28C282.045 37.76 282.705 40.7 282.705 44.1C282.705 44.54 282.685 44.96 282.645 45.36C282.645 45.76 282.645 46.18 282.645 46.62H257.085V40.62H276.045L273.585 44.1C273.585 40.74 273.045 38.36 271.965 36.96C270.925 35.56 269.405 34.86 267.405 34.86C265.565 34.86 264.085 35.58 262.965 37.02C261.845 38.42 261.285 40.78 261.285 44.1C261.285 47.22 261.865 49.52 263.025 51C264.185 52.48 265.785 53.22 267.825 53.22C269.145 53.22 270.285 52.92 271.245 52.32C272.245 51.68 272.945 50.72 273.345 49.44L281.865 51.6C281.105 54.36 279.485 56.6 277.005 58.32C274.525 60 271.285 60.84 267.285 60.84ZM303.708 60V18.6H312.948V60H303.708ZM291.708 27.3V18.6H324.948V27.3H291.708ZM338.19 60.84C335.23 60.84 332.59 60.14 330.27 58.74C327.99 57.34 326.21 55.38 324.93 52.86C323.65 50.34 323.01 47.42 323.01 44.1C323.01 40.74 323.65 37.8 324.93 35.28C326.25 32.76 328.07 30.82 330.39 29.46C332.71 28.06 335.35 27.36 338.31 27.36C341.31 27.36 343.95 28.06 346.23 29.46C348.55 30.82 350.35 32.76 351.63 35.28C352.95 37.76 353.61 40.7 353.61 44.1C353.61 44.54 353.59 44.96 353.55 45.36C353.55 45.76 353.55 46.18 353.55 46.62H327.99V40.62H346.95L344.49 44.1C344.49 40.74 343.95 38.36 342.87 36.96C341.83 35.56 340.31 34.86 338.31 34.86C336.47 34.86 334.99 35.58 333.87 37.02C332.75 38.42 332.19 40.78 332.19 44.1C332.19 47.22 332.77 49.52 333.93 51C335.09 52.48 336.69 53.22 338.73 53.22C340.05 53.22 341.19 52.92 342.15 52.32C343.15 51.68 343.85 50.72 344.25 49.44L352.77 51.6C352.01 54.36 350.39 56.6 347.91 58.32C345.43 60 342.19 60.84 338.19 60.84ZM370.075 60.84C367.035 60.84 364.355 60.14 362.035 58.74C359.715 57.34 357.895 55.38 356.575 52.86C355.255 50.34 354.595 47.42 354.595 44.1C354.595 40.74 355.255 37.82 356.575 35.34C357.895 32.82 359.715 30.86 362.035 29.46C364.355 28.06 367.035 27.36 370.075 27.36C373.875 27.36 377.055 28.38 379.615 30.42C382.215 32.42 383.895 35.18 384.655 38.7L375.775 40.68C375.535 38.92 374.915 37.6 373.915 36.72C372.955 35.8 371.675 35.34 370.075 35.34C368.195 35.34 366.675 36.08 365.515 37.56C364.355 39.04 363.775 41.22 363.775 44.1C363.775 46.98 364.355 49.16 365.515 50.64C366.675 52.12 368.195 52.86 370.075 52.86C371.675 52.86 372.995 52.42 374.035 51.54C375.075 50.66 375.735 49.34 376.015 47.58L384.835 49.44C384.075 52.96 382.375 55.74 379.735 57.78C377.095 59.82 373.875 60.84 370.075 60.84ZM406.895 60V41.76C406.895 39.64 406.375 38.04 405.335 36.96C404.335 35.84 403.035 35.28 401.435 35.28C399.835 35.28 398.515 35.84 397.475 36.96C396.475 38.04 395.975 39.64 395.975 41.76H394.415C394.415 38.68 394.855 36.08 395.735 33.96C396.615 31.8 397.855 30.16 399.455 29.04C401.095 27.92 403.015 27.36 405.215 27.36C407.295 27.36 409.135 27.86 410.735 28.86C412.335 29.86 413.575 31.3 414.455 33.18C415.375 35.06 415.835 37.32 415.835 39.96V60H406.895ZM387.035 60V17.1H395.975V60H387.035Z" fill="black"/>
<path d="M153.36 111.84C149.56 111.84 146.22 110.96 143.34 109.2C140.46 107.4 138.2 104.88 136.56 101.64C134.96 98.4 134.16 94.62 134.16 90.3C134.16 85.94 134.96 82.16 136.56 78.96C138.2 75.72 140.46 73.22 143.34 71.46C146.22 69.66 149.54 68.76 153.3 68.76C156.42 68.76 159.22 69.34 161.7 70.5C164.18 71.66 166.26 73.3 167.94 75.42C169.62 77.54 170.76 80.08 171.36 83.04L162.12 85.56C161.72 83.04 160.74 81.08 159.18 79.68C157.66 78.24 155.7 77.52 153.3 77.52C150.38 77.52 148.04 78.66 146.28 80.94C144.52 83.18 143.64 86.3 143.64 90.3C143.64 94.26 144.52 97.38 146.28 99.66C148.04 101.94 150.4 103.08 153.36 103.08C155.84 103.08 157.84 102.36 159.36 100.92C160.92 99.48 161.9 97.48 162.3 94.92L171.48 97.44C170.88 100.4 169.74 102.96 168.06 105.12C166.42 107.28 164.34 108.94 161.82 110.1C159.34 111.26 156.52 111.84 153.36 111.84ZM188.013 111.84C184.973 111.84 182.273 111.14 179.913 109.74C177.553 108.34 175.713 106.4 174.393 103.92C173.073 101.4 172.413 98.46 172.413 95.1C172.413 91.74 173.073 88.8 174.393 86.28C175.713 83.76 177.553 81.82 179.913 80.46C182.273 79.06 184.973 78.36 188.013 78.36C191.093 78.36 193.793 79.06 196.113 80.46C198.473 81.82 200.313 83.76 201.633 86.28C202.953 88.8 203.613 91.74 203.613 95.1C203.613 98.46 202.953 101.4 201.633 103.92C200.313 106.4 198.473 108.34 196.113 109.74C193.793 111.14 191.093 111.84 188.013 111.84ZM188.013 103.86C190.013 103.86 191.573 103.14 192.693 101.7C193.853 100.22 194.433 98.02 194.433 95.1C194.433 92.18 193.853 90 192.693 88.56C191.573 87.08 190.013 86.34 188.013 86.34C186.013 86.34 184.433 87.08 183.273 88.56C182.153 90 181.593 92.18 181.593 95.1C181.593 98.02 182.153 100.22 183.273 101.7C184.433 103.14 186.013 103.86 188.013 103.86ZM206.083 111V79.2H215.023V111H206.083ZM213.823 96.72C213.823 93 214.183 89.78 214.903 87.06C215.623 84.3 216.803 82.16 218.443 80.64C220.083 79.12 222.283 78.36 225.043 78.36V88.62H220.783C218.943 88.62 217.523 89.06 216.523 89.94C215.523 90.82 215.023 92.42 215.023 94.74L213.823 96.72ZM244.418 111.84C241.258 111.84 238.698 110.6 236.738 108.12C234.778 105.6 233.798 102.04 233.798 97.44V92.76C233.798 88.12 234.778 84.56 236.738 82.08C238.698 79.6 241.258 78.36 244.418 78.36C246.898 78.36 249.038 79.04 250.838 80.4C252.678 81.72 254.098 83.62 255.098 86.1C256.098 88.58 256.598 91.58 256.598 95.1C256.598 98.58 256.098 101.58 255.098 104.1C254.098 106.58 252.678 108.5 250.838 109.86C249.038 111.18 246.898 111.84 244.418 111.84ZM226.418 121.5V79.2H235.358V87.54L234.218 95.1L235.358 102.18V121.5H226.418ZM241.058 103.8C242.978 103.8 244.518 103.08 245.678 101.64C246.838 100.16 247.418 97.98 247.418 95.1C247.418 92.22 246.838 90.06 245.678 88.62C244.518 87.14 242.978 86.4 241.058 86.4C239.178 86.4 237.658 87.14 236.498 88.62C235.338 90.06 234.758 92.22 234.758 95.1C234.758 97.98 235.338 100.16 236.498 101.64C237.658 103.08 239.178 103.8 241.058 103.8ZM273.391 111.84C270.351 111.84 267.651 111.14 265.291 109.74C262.931 108.34 261.091 106.4 259.771 103.92C258.451 101.4 257.791 98.46 257.791 95.1C257.791 91.74 258.451 88.8 259.771 86.28C261.091 83.76 262.931 81.82 265.291 80.46C267.651 79.06 270.351 78.36 273.391 78.36C276.471 78.36 279.171 79.06 281.491 80.46C283.851 81.82 285.691 83.76 287.011 86.28C288.331 88.8 288.991 91.74 288.991 95.1C288.991 98.46 288.331 101.4 287.011 103.92C285.691 106.4 283.851 108.34 281.491 109.74C279.171 111.14 276.471 111.84 273.391 111.84ZM273.391 103.86C275.391 103.86 276.951 103.14 278.071 101.7C279.231 100.22 279.811 98.02 279.811 95.1C279.811 92.18 279.231 90 278.071 88.56C276.951 87.08 275.391 86.34 273.391 86.34C271.391 86.34 269.811 87.08 268.651 88.56C267.531 90 266.971 92.18 266.971 95.1C266.971 98.02 267.531 100.22 268.651 101.7C269.811 103.14 271.391 103.86 273.391 103.86ZM291.461 111V79.2H300.401V111H291.461ZM299.201 96.72C299.201 93 299.561 89.78 300.281 87.06C301.001 84.3 302.181 82.16 303.821 80.64C305.461 79.12 307.661 78.36 310.421 78.36V88.62H306.161C304.321 88.62 302.901 89.06 301.901 89.94C300.901 90.82 300.401 92.42 300.401 94.74L299.201 96.72ZM330.276 111C330.036 109.96 329.836 108.9 329.676 107.82C329.556 106.74 329.496 105.68 329.496 104.64V91.2C329.496 89.12 329.016 87.66 328.056 86.82C327.096 85.98 325.956 85.56 324.636 85.56C323.356 85.56 322.236 85.92 321.276 86.64C320.356 87.36 319.716 88.54 319.356 90.18L310.776 88.32C311.616 85 313.296 82.52 315.816 80.88C318.336 79.2 321.456 78.36 325.176 78.36C329.256 78.36 332.476 79.44 334.836 81.6C337.236 83.72 338.436 86.68 338.436 90.48V103.92C338.436 106.28 338.736 108.64 339.336 111H330.276ZM319.836 111.84C316.716 111.84 314.336 111.02 312.696 109.38C311.096 107.74 310.296 105.58 310.296 102.9C310.296 100.54 311.076 98.46 312.636 96.66C314.236 94.82 316.696 93.64 320.016 93.12L332.076 91.14V96.78L323.256 98.64C321.736 98.96 320.696 99.44 320.136 100.08C319.576 100.72 319.296 101.4 319.296 102.12C319.296 102.88 319.536 103.52 320.016 104.04C320.536 104.52 321.296 104.76 322.296 104.76C323.456 104.76 324.576 104.5 325.656 103.98C326.776 103.46 327.696 102.68 328.416 101.64C329.136 100.56 329.496 99.26 329.496 97.74H331.536C331.536 100.62 331.016 103.12 329.976 105.24C328.976 107.36 327.596 109 325.836 110.16C324.076 111.28 322.076 111.84 319.836 111.84ZM354.924 111.84C351.444 111.84 348.684 110.84 346.644 108.84C344.644 106.84 343.644 103.84 343.644 99.84V72.6L352.584 70.86V98.82C352.584 100.42 353.004 101.64 353.844 102.48C354.684 103.28 355.864 103.68 357.384 103.68C358.104 103.68 358.764 103.62 359.364 103.5C360.004 103.34 360.644 103.18 361.284 103.02V111C360.364 111.28 359.384 111.48 358.344 111.6C357.344 111.76 356.204 111.84 354.924 111.84ZM339.684 86.58V79.2H360.984V86.58H339.684ZM362.894 111V79.2H371.834V111H362.894ZM367.394 75.72C366.074 75.72 364.974 75.3 364.094 74.46C363.254 73.62 362.834 72.52 362.834 71.16C362.834 69.76 363.254 68.68 364.094 67.92C364.974 67.12 366.074 66.72 367.394 66.72C368.674 66.72 369.754 67.12 370.634 67.92C371.514 68.68 371.954 69.76 371.954 71.16C371.954 72.52 371.514 73.62 370.634 74.46C369.754 75.3 368.674 75.72 367.394 75.72ZM389.887 111.84C386.847 111.84 384.147 111.14 381.787 109.74C379.427 108.34 377.587 106.4 376.267 103.92C374.947 101.4 374.287 98.46 374.287 95.1C374.287 91.74 374.947 88.8 376.267 86.28C377.587 83.76 379.427 81.82 381.787 80.46C384.147 79.06 386.847 78.36 389.887 78.36C392.967 78.36 395.667 79.06 397.987 80.46C400.347 81.82 402.187 83.76 403.507 86.28C404.827 88.8 405.487 91.74 405.487 95.1C405.487 98.46 404.827 101.4 403.507 103.92C402.187 106.4 400.347 108.34 397.987 109.74C395.667 111.14 392.967 111.84 389.887 111.84ZM389.887 103.86C391.887 103.86 393.447 103.14 394.567 101.7C395.727 100.22 396.307 98.02 396.307 95.1C396.307 92.18 395.727 90 394.567 88.56C393.447 87.08 391.887 86.34 389.887 86.34C387.887 86.34 386.307 87.08 385.147 88.56C384.027 90 383.467 92.18 383.467 95.1C383.467 98.02 384.027 100.22 385.147 101.7C386.307 103.14 387.887 103.86 389.887 103.86ZM427.817 111V92.76C427.817 90.64 427.297 89.04 426.257 87.96C425.257 86.84 423.957 86.28 422.357 86.28C420.757 86.28 419.437 86.84 418.397 87.96C417.397 89.04 416.897 90.64 416.897 92.76H415.337C415.337 89.68 415.777 87.08 416.657 84.96C417.537 82.8 418.777 81.16 420.377 80.04C422.017 78.92 423.937 78.36 426.137 78.36C428.217 78.36 430.057 78.86 431.657 79.86C433.257 80.86 434.497 82.3 435.377 84.18C436.297 86.06 436.757 88.32 436.757 90.96V111H427.817ZM407.957 111V79.2H416.897V111H407.957Z" fill="#AAAAAA"/>
</svg>
